<svg xmlns="http://www.w3.org/2000/svg" viewBox="0 0 32 32">
  <defs>
    <radialGradient id="grad" cx="30%" cy="30%" r="70%">
      <stop offset="0%" style="stop-color:#6BA2FF"/>
      <stop offset="25%" style="stop-color:#4682FF"/>
      <stop offset="50%" style="stop-color:#3668E0"/>
      <stop offset="75%" style="stop-color:#2B54C4"/>
      <stop offset="100%" style="stop-color:#1E3C99"/>
    </radialGradient>
    <filter id="shadow" x="-20%" y="-20%" width="140%" height="140%">
      <feDropShadow dx="0" dy="1" stdDeviation="1" flood-color="#000000" flood-opacity="0.3"/>
    </filter>
  </defs>
  <circle cx="16" cy="16" r="15" fill="url(#grad)" stroke="white" stroke-width="1" filter="url(#shadow)"/>
  <text x="16" y="22" text-anchor="middle" font-family="Arial" font-weight="bold" font-size="12" fill="white">RW</text>
  <!-- Main star -->
  <path d="M16 4 L17 7 L20 8 L17 9 L16 12 L15 9 L12 8 L15 7 Z" fill="#FFD700"/>
  <!-- Enhanced sparkles -->
  <path d="M13 5 L13.5 5.5 L13 6 L12.5 5.5 Z" fill="#FFE666"/>
  <path d="M19 5 L19.5 5.5 L19 6 L18.5 5.5 Z" fill="#FFE666"/>
  <path d="M16 2 L16.5 2.5 L16 3 L15.5 2.5 Z" fill="#FFE666"/>
  <path d="M14 3 L14.3 3.3 L14 3.6 L13.7 3.3 Z" fill="#FFE666"/>
  <path d="M18 3 L18.3 3.3 L18 3.6 L17.7 3.3 Z" fill="#FFE666"/></svg>
